<svg width="21" height="23" viewBox="0 0 21 23" fill="none" xmlns="http://www.w3.org/2000/svg">
<path d="M4.10393 16.1868L4.1036 16.1865C2.40715 14.49 1.4541 12.1892 1.4541 9.79002C1.4541 7.39089 2.40715 5.09002 4.1036 3.39357C5.80004 1.69713 8.10091 0.74408 10.5 0.74408C12.8992 0.74408 15.2 1.69713 16.8965 3.39357C18.5855 5.08257 19.5343 7.37332 19.5343 9.7619C19.5343 12.1505 18.5855 14.4412 16.8965 16.1302L16.8958 16.1309L10.9221 22.1271L10.9213 22.1279C10.8632 22.1865 10.7941 22.233 10.7179 22.2647C10.6417 22.2965 10.5601 22.3128 10.4775 22.3128C10.395 22.3128 10.3133 22.2965 10.2372 22.2647C10.161 22.233 10.0919 22.1865 10.0338 22.1279L10.0327 22.1268L4.10393 16.1868ZM10.1457 20.3916L10.5 20.7474L10.8544 20.3916L15.995 15.2284C15.9951 15.2283 15.9952 15.2283 15.9952 15.2282C17.0807 14.1416 17.8197 12.7577 18.1188 11.2512C18.4179 9.74467 18.2637 8.18325 17.6756 6.76434C17.0875 5.34543 16.0919 4.13273 14.8147 3.27954C13.5375 2.42635 12.036 1.97098 10.5 1.97098C8.96408 1.97098 7.46259 2.42635 6.18539 3.27954C4.90819 4.13273 3.9126 5.34543 3.32449 6.76434C2.73638 8.18325 2.58214 9.74467 2.88127 11.2512C3.18039 12.7577 3.91938 14.1416 5.00486 15.2282C5.00493 15.2283 5.005 15.2283 5.00508 15.2284L10.1457 20.3916ZM13.63 6.74204L13.6299 6.7421L13.6361 6.74822C14.0422 7.14939 14.3637 7.62791 14.5817 8.15549C14.7996 8.68287 14.9095 9.24857 14.9051 9.81916C14.896 10.6754 14.6343 11.51 14.1529 12.2182C13.6713 12.9265 12.9912 13.4769 12.198 13.8002C11.4048 14.1235 10.5338 14.2054 9.69429 14.0355C8.85486 13.8657 8.08426 13.4518 7.47914 12.8458C6.66438 12.0285 6.20686 10.9215 6.20686 9.76752C6.20686 8.61405 6.66394 7.50761 7.47797 6.69045C7.88416 6.28865 8.36574 5.97105 8.89504 5.75591C9.42485 5.54055 9.99201 5.4321 10.5639 5.43679C11.1358 5.44147 11.7011 5.55921 12.2273 5.78322C12.7535 6.00723 13.2302 6.33309 13.63 6.74204ZM12.7575 11.9521L13.5956 11.1013H13.3264C13.53 10.694 13.644 10.2432 13.6549 9.7793L13.655 9.7793L13.655 9.7686C13.6566 9.04518 13.4068 8.34368 12.9484 7.78404C12.49 7.22439 11.8514 6.84136 11.1419 6.70042C10.4323 6.55948 9.69584 6.6694 9.05835 7.01137C8.42085 7.35334 7.92194 7.90613 7.64691 8.57523C7.37188 9.24433 7.33782 9.98819 7.55053 10.6796C7.76324 11.3711 8.20953 11.9672 8.8131 12.366C9.41666 12.7648 10.14 12.9416 10.8595 12.8661C11.579 12.7906 12.2499 12.4675 12.7575 11.9521Z" fill="currentColor" stroke="currentColor"/>
</svg>
